<svg width="39" height="41" viewBox="0 0 39 41" fill="none" xmlns="http://www.w3.org/2000/svg">
<g clip-path="url(#clip0_0_347)">
<path d="M22.1252 34.5034C22.0759 34.5034 22.0512 34.5289 22.0512 34.5798V34.6562C22.0512 34.7071 22.0759 34.7326 22.1252 34.7326H31.889C31.963 34.7326 32 34.7071 32 34.6562V34.5798C32 34.5289 31.963 34.5034 31.889 34.5034H30.7426C29.9782 34.5034 29.4358 34.3633 29.1152 34.0832C28.8193 33.8031 28.5728 33.3447 28.3755 32.7081C27.1427 28.7863 25.9962 24.8645 24.936 20.9427C23.8758 17.0209 22.8279 13.0737 21.7923 9.10093C21.6444 8.56613 21.6444 8.12053 21.7923 7.764C21.9403 7.40747 22.2854 7.2292 22.8279 7.2292H25.047C25.1209 7.2292 25.1579 7.191 25.1579 7.1146V7.0764C25.1579 7.02547 25.1209 7 25.047 7H10.2532C10.1545 7 10.1053 7.02547 10.1053 7.0764V7.1146C10.1053 7.191 10.1545 7.2292 10.2532 7.2292H12.9901C13.4832 7.2292 13.7297 7.4584 13.7297 7.9168C13.7297 8.12053 13.7051 8.32427 13.6557 8.52793C13.6065 8.7062 13.5202 8.9736 13.3969 9.33013C13.175 9.91587 12.9038 10.6162 12.5832 11.4311C12.2874 12.2205 11.9791 13.0355 11.6586 13.8759C11.3381 14.7163 11.0299 15.5311 10.734 16.3206C10.4381 17.1101 10.1792 17.7977 9.95733 18.3833C9.48888 19.6312 9.00807 20.8536 8.51496 22.0505C8.04645 23.2474 7.62728 24.3933 7.25745 25.4884C6.88761 26.558 6.57942 27.5766 6.33286 28.5443C6.11098 29.4866 6 30.3525 6 31.1419C6 32.4916 6.32056 33.472 6.96162 34.0832C7.60268 34.6944 8.40399 35 9.3656 35C10.1545 35 10.8696 34.7835 11.5107 34.3506C12.1517 33.8922 12.7558 33.332 13.3229 32.6699C13.9147 31.9823 14.4694 31.2565 14.9872 30.4925C15.5296 29.7031 16.0844 28.9773 16.6515 28.3151C17.2186 27.6275 17.8103 27.0673 18.4267 26.6344C19.0678 26.176 19.7582 25.9468 20.4979 25.9468C21.6814 25.9468 22.5936 26.3033 23.2347 27.0164C23.8758 27.7294 24.3443 28.5443 24.6401 29.4611C24.8374 30.0214 24.9853 30.5561 25.0839 31.0655C25.2072 31.5748 25.3305 32.0332 25.4538 32.4407C25.5031 32.6699 25.5154 32.9118 25.4907 33.1665C25.4907 33.4211 25.4168 33.6503 25.2689 33.854C25.1456 34.0323 24.9237 34.1851 24.6031 34.3124C24.3072 34.4397 23.9004 34.5034 23.3826 34.5034H22.1252ZM12.2874 18.9945C13.6928 18.9945 14.716 19.3256 15.357 19.9877C15.9981 20.6244 16.3186 21.6685 16.3186 23.1201V27.0928C15.7762 27.5002 15.2461 27.9331 14.7283 28.3915C14.2105 28.8499 13.7051 29.2701 13.212 29.6521C12.7188 30.0341 12.238 30.3524 11.7696 30.6071C11.3011 30.8363 10.8326 30.9509 10.3641 30.9509C9.6738 30.9509 9.04504 30.7344 8.47793 30.3015C7.91087 29.8431 7.62728 29.0919 7.62728 28.0477C7.62728 27.4111 7.72596 26.6853 7.92318 25.8704C8.14506 25.03 8.39168 24.1896 8.66284 23.3493C8.95874 22.5089 9.25463 21.7067 9.55052 20.9427C9.84635 20.1787 10.0929 19.5293 10.2902 18.9945H12.2874ZM13.7297 9.75033C14.0256 8.98633 14.3955 8.4898 14.8392 8.2606C15.3077 8.0314 15.8009 7.90407 16.3186 7.8786V14.5253C16.3186 16.0277 16.0104 17.1101 15.3941 17.7722C14.7776 18.4343 13.742 18.7653 12.2874 18.7653H10.3641C10.734 17.7722 11.1039 16.779 11.4737 15.7858C11.8435 14.7672 12.1887 13.8377 12.5093 12.9973C12.8298 12.1569 13.0887 11.4439 13.2859 10.8581C13.5078 10.2724 13.6557 9.90313 13.7297 9.75033ZM22.9758 23.3111C23.0251 23.4893 23.0745 23.7058 23.1237 23.9605C23.1731 24.2151 23.1977 24.457 23.1977 24.6862C23.2224 24.9154 23.21 25.1319 23.1608 25.3356C23.1361 25.5139 23.0621 25.6412 22.9388 25.7176C22.8895 25.7431 22.8032 25.7558 22.68 25.7558C22.4334 25.7558 22.1375 25.7049 21.7923 25.603C21.4718 25.4757 21.028 25.412 20.4609 25.412C19.7705 25.412 19.1048 25.5648 18.4637 25.8704C17.8226 26.1505 17.1816 26.5071 16.5405 26.94V23.1201C16.5405 21.643 16.8364 20.5862 17.4281 19.9495C18.0446 19.3129 19.0802 18.9945 20.5348 18.9945H21.8293C22.0265 19.7076 22.2114 20.4334 22.3841 21.1719C22.5813 21.8849 22.7786 22.598 22.9758 23.3111ZM20.5348 18.7653C19.1294 18.7653 18.1062 18.4215 17.4652 17.734C16.8487 17.0464 16.5405 15.9768 16.5405 14.5253V7.8786C17.4035 7.90407 18.0446 8.09507 18.4637 8.4516C18.8829 8.80807 19.1788 9.29193 19.3514 9.90313C19.6225 10.8709 19.9678 12.1314 20.3869 13.6849C20.806 15.2383 21.2622 16.9318 21.7553 18.7653H20.5348Z" fill="#212529"/>
</g>
<defs>
<clipPath id="clip0_0_347">
<rect width="39" height="41" fill="white"/>
</clipPath>
</defs>
</svg>
